<?xml version="1.0" encoding="UTF-8"?>
<svg width="254px" height="30px" viewBox="0 0 254 30" version="1.1" xmlns="http://www.w3.org/2000/svg" xmlns:xlink="http://www.w3.org/1999/xlink">
    <!-- Generator: Sketch 59.1 (86144) - https://sketch.com -->
    <title>HWH Logo</title>
    <desc>Created with Sketch.</desc>
    <defs>
        <polygon id="path-1" points="0.0440462428 0.0286300578 253.930847 0.0286300578 253.930847 29.3632809 0.0440462428 29.3632809"></polygon>
    </defs>
    <g id="HWH-Logo" stroke="none" stroke-width="1" fill="none" fill-rule="evenodd">
        <g id="Group-3">
            <mask id="mask-2" fill="white">
                <use xlink:href="#path-1"></use>
            </mask>
            <g id="Clip-2"></g>
            <path d="M199.008853,21.2323445 C195.173894,21.2323445 193.547853,19.2377838 193.547853,14.5431884 C193.547853,9.9102578 195.173894,7.91569711 199.008853,7.91569711 C202.845281,7.91569711 204.470587,9.9102578 204.470587,14.5431884 C204.470587,19.2377838 202.845281,21.2323445 199.008853,21.2323445 L199.008853,21.2323445 Z M199.008853,5.82937341 C193.793778,5.82937341 191.093009,8.83626358 191.093009,14.5740208 C191.093009,20.311778 193.793778,23.3186682 199.008853,23.3186682 C204.224662,23.3186682 206.925431,20.311778 206.925431,14.5740208 C206.925431,8.83626358 204.224662,5.82937341 199.008853,5.82937341 L199.008853,5.82937341 Z M184.557281,-0.000146820809 L187.073055,-0.000146820809 L187.073055,22.9508821 L184.557281,22.9508821 L184.557281,11.9664832 L171.530605,11.9664832 L171.530605,22.9508821 L169.01483,22.9508821 L169.01483,-0.000146820809 L171.530605,-0.000146820809 L171.530605,9.72599769 L184.557281,9.72599769 L184.557281,-0.000146820809 Z M246.352691,7.91569711 C249.416842,7.91569711 251.338726,9.57036763 251.440032,13.3165006 L241.071547,13.3165006 C241.387212,9.55054682 243.097674,7.91569711 246.352691,7.91569711 L246.352691,7.91569711 Z M253.930847,13.9603098 C253.930847,8.65273757 251.016454,5.82937341 246.321859,5.82937341 C241.536235,5.82937341 238.589541,8.86709595 238.589541,14.5740208 C238.589541,20.4042751 241.228645,23.3186682 246.444454,23.3186682 C249.94246,23.3186682 252.520634,21.9994832 253.808252,18.9925931 L251.87609,17.9494312 C250.801362,20.3426104 249.082824,21.2323445 246.475287,21.2323445 C243.057298,21.2323445 241.139818,19.3229399 241.05246,15.372726 L253.869917,15.372726 C253.900749,15.0350382 253.930847,14.4822578 253.930847,13.9603098 L253.930847,13.9603098 Z M235.398391,12.3651017 L235.398391,22.9508821 L232.945015,22.9508821 L232.945015,12.8562173 C232.945015,9.48080694 231.77779,7.97736185 229.201084,7.97736185 C226.163362,7.97736185 224.230466,10.2479457 224.077038,14.0219746 L224.077038,22.9508821 L221.622194,22.9508821 L221.622194,12.917148 C221.622194,9.54247168 220.394772,7.97736185 217.786501,7.97736185 C214.77961,7.97736185 212.939946,10.2479457 212.755686,14.1445699 L212.755686,22.9508821 L210.300108,22.9508821 L210.300108,6.19789364 L212.509761,6.19789364 L212.668327,9.21579538 C213.88694,7.0068763 215.969593,5.82937341 218.370113,5.82937341 C221.029772,5.82937341 222.882651,7.17204971 223.554356,9.67607861 C224.885287,7.11405549 227.004645,5.82937341 229.753131,5.82937341 C233.496327,5.82937341 235.398391,8.00819422 235.398391,12.3651017 L235.398391,12.3651017 Z M120.091934,6.19789364 L122.669373,6.19789364 L117.514495,22.9508821 L112.636373,22.9508821 L109.720512,12.684437 L106.622593,22.9508821 L101.621142,22.9508821 L96.7760555,7.20361618 L90.2072925,23.8714486 C89.2250613,26.3255584 87.2312347,29.3632809 83.5489688,29.3632809 C81.1249572,29.3632809 79.6215121,28.135859 79.6215121,25.9577723 C79.6215121,24.5468243 80.7872694,23.1344081 82.4749746,23.1344081 C83.9784197,23.1344081 85.0832462,24.0549746 85.0832462,25.5283214 C85.0832462,26.097252 84.8072231,26.7689572 84.2860092,27.1521595 C84.2970208,27.1528936 84.305096,27.1543618 84.3161075,27.1543618 C85.5802347,27.1543618 86.9522751,25.9966798 87.8265931,23.557252 L80.8489341,6.19789364 L87.9976393,6.19789364 L91.2945006,14.7046913 L94.5642,6.19789364 L103.33968,6.19789364 L106.267287,15.7206913 L109.138368,6.19789364 L114.324079,6.19789364 L117.179743,15.7640035 L120.091934,6.19789364 Z M132.18116,7.63967399 C133.224321,7.63967399 134.54424,8.65273757 134.54424,11.8130555 L134.54424,13.530859 L129.634553,13.530859 L129.634553,11.8130555 C129.634553,8.65273757 131.137998,7.63967399 132.18116,7.63967399 L132.18116,7.63967399 Z M132.18116,5.64511329 C127.916015,5.64511329 122.761871,7.97736185 122.761871,14.5740208 C122.761871,21.1706798 127.394801,23.5029283 132.579778,23.5029283 C136.231212,23.5029283 140.373761,22.3371711 141.01757,18.1336913 L138.041512,18.1336913 C137.642894,20.5878012 135.55657,21.5083676 133.716171,21.5083676 C131.322258,21.5083676 129.634553,20.4042751 129.634553,17.6734081 L129.634553,15.4953214 L141.324425,15.4953214 C141.355258,15.1884659 141.355258,14.8816104 141.355258,14.5740208 C141.355258,7.97736185 136.323709,5.64511329 132.18116,5.64511329 L132.18116,5.64511329 Z M143.381385,22.9508821 L149.79305,22.9508821 L149.79305,-0.000146820809 L143.381385,-0.000146820809 L143.381385,22.9508821 Z M152.155397,22.9508821 L158.568529,22.9508821 L158.568529,-0.000146820809 L152.155397,-0.000146820809 L152.155397,22.9508821 Z M71.9200266,7.63967399 C72.9631884,7.63967399 74.2831075,8.65273757 74.2831075,11.8130555 L74.2831075,13.530859 L69.3734197,13.530859 L69.3734197,11.8130555 C69.3734197,8.65273757 70.8768647,7.63967399 71.9200266,7.63967399 L71.9200266,7.63967399 Z M77.7803792,18.1336913 C77.3817607,20.5878012 75.295437,21.5083676 73.454304,21.5083676 C71.0611249,21.5083676 69.3734197,20.4042751 69.3734197,17.6734081 L69.3734197,15.4953214 L81.0640266,15.4953214 C81.0941249,15.1884659 81.0941249,14.8816104 81.0941249,14.5740208 C81.0941249,7.97736185 76.0625757,5.64511329 71.9200266,5.64511329 C67.6556162,5.64511329 62.5007376,7.97736185 62.5007376,14.5740208 C62.5007376,21.1706798 67.1336682,23.5029283 72.3193792,23.5029283 C75.9700786,23.5029283 80.1126277,22.3371711 80.7571711,18.1336913 L77.7803792,18.1336913 Z M12.825385,-0.000146820809 L19.6371364,-0.000146820809 L19.6371364,22.9508821 L12.825385,22.9508821 L12.825385,12.303437 L6.81160462,12.303437 L6.81160462,22.9508821 L-0.000146820809,22.9508821 L-0.000146820809,-0.000146820809 L6.81160462,-0.000146820809 L6.81160462,9.75683006 L12.825385,9.75683006 L12.825385,-0.000146820809 Z M60.4753445,11.1068474 L60.4753445,22.9508821 L53.9095179,22.9508821 L53.9095179,11.6596277 C53.9095179,10.1862809 53.1423792,9.17395145 51.7615295,9.17395145 C50.8328879,9.17395145 49.8198243,9.80528092 49.3375179,10.9534197 L49.3375179,22.9508821 L42.7716913,22.9508821 L42.7716913,6.19789364 L49.3375179,6.19789364 L49.3375179,8.4214948 C50.2771711,6.8064659 52.5675757,5.7376104 54.6458243,5.7376104 C57.9287376,5.7376104 60.4753445,7.79310173 60.4753445,11.1068474 L60.4753445,11.1068474 Z M33.7510208,14.5740208 L33.7510208,17.3357202 C33.7510208,20.4960382 32.3092405,21.5083676 31.2653445,21.5083676 C30.2221827,21.5083676 28.7804023,20.4960382 28.7804023,17.3357202 L28.7804023,11.8130555 C28.7804023,8.65273757 30.2221827,7.63967399 31.2653445,7.63967399 C32.3092405,7.63967399 33.7510208,8.65273757 33.7510208,11.8130555 L33.7510208,14.5740208 Z M31.2961769,5.64511329 C27.0310324,5.64511329 21.9069861,7.97736185 21.9069861,14.5740208 C21.9069861,21.1706798 27.0310324,23.5029283 31.2961769,23.5029283 C35.5613214,23.5029283 40.6853676,21.1706798 40.6853676,14.5740208 C40.6853676,7.97736185 35.5613214,5.64511329 31.2961769,5.64511329 L31.2961769,5.64511329 Z" id="Fill-1" fill="#EE3124" mask="url(#mask-2)"></path>
        </g>
    </g>
</svg>